<?xml version="1.0" standalone="no"?>
<!DOCTYPE svg PUBLIC "-//W3C//DTD SVG 20010904//EN"
 "http://www.w3.org/TR/2001/REC-SVG-20010904/DTD/svg10.dtd">
<svg version="1.0" xmlns="http://www.w3.org/2000/svg"
 width="416.000000pt" height="569.000000pt" viewBox="0 0 416.000000 569.000000"
 preserveAspectRatio="xMidYMid meet">

<g transform="translate(0.000000,569.000000) scale(0.100000,-0.100000)"
fill="#000000" stroke="none">
<path d="M1738 5267 l-227 -232 -1 -2135 0 -2135 285 -285 285 -285 285 285
285 285 0 2135 0 2135 -235 235 -235 235 0 -2273 0 -2272 -32 -20 c-39 -24
-98 -26 -138 -5 l-30 16 -1 2227 c0 1225 -4 2248 -7 2274 l-7 46 -227 -231z"/>
<path d="M957 4486 c-412 -415 -482 -505 -609 -774 -181 -382 -227 -798 -137
-1232 91 -437 303 -749 898 -1319 l191 -183 0 1926 c0 1059 -1 1925 -2 1924
-2 0 -155 -154 -341 -342z m-117 -1591 c-1 -400 -5 -715 -9 -715 -15 0 -97
179 -129 280 -46 146 -65 274 -65 440 0 224 41 414 129 608 36 80 51 102 65
102 6 0 9 -300 9 -715z"/>
<path d="M2850 2908 c0 -1061 3 -1928 8 -1928 4 0 110 102 235 228 l227 227 0
618 0 617 100 0 100 0 0 -512 1 -513 35 40 c98 112 234 345 303 519 190 477
169 1054 -54 1520 -122 253 -205 358 -611 766 l-344 345 0 -1927z m519 644
c63 -126 140 -373 127 -407 -5 -13 -21 -15 -88 -13 l-83 3 -3 243 c-2 167 1
241 8 237 6 -4 23 -32 39 -63z"/>
</g>
</svg>
